<svg aria-hidden="true" focusable="false" data-prefix="fad" data-icon="mouse-alt" class="svg-inline--fa fa-mouse-alt fa-w-12" role="img" xmlns="http://www.w3.org/2000/svg" viewBox="0 0 384 512">
  <g class="fa-group">
    <path class="fa-secondary" fill="currentColor" d="M224 0h-64A160 160 0 0 0 0 160v192a160 160 0 0 0 160 160h64a160 160 0 0 0 160-160V160A160 160 0 0 0 224 0zm0 160a32 32 0 0 1-64 0v-32a32 32 0 0 1 64 0z" opacity="0.4"></path>
    <path class="fa-primary" fill="currentColor" d="M224 160a32 32 0 0 1-64 0v-32a32 32 0 0 1 64 0z"></path>
  </g>
</svg>